<svg xmlns="http://www.w3.org/2000/svg" viewBox="0 0 500 500">
  <path fill="#3A2718" d="M250 200 C 250 200, 220 150, 200 180 C 180 210, 150 300, 200 350 C 250 400, 300 350, 350 300 C 400 250, 380 200, 350 180 C 320 160, 280 150, 250 200 Z"/>
  <path fill="#3A2718" d="M250 150 C 250 150, 270 120, 250 100 C 230 80, 200 100, 220 120 C 240 140, 250 150, 250 150 Z"/>
  <path fill="#3A2718" d="M250 170 L 250 190 L 270 180 Z"/>
  <path fill="#3A2718" d="M200 400 C 200 400, 150 450, 200 480 C 250 510, 300 450, 350 400 C 400 350, 350 300, 300 350 C 250 400, 200 400, 200 400 Z"/>
  <path fill="#3A2718" d="M150 350 C 150 350, 100 380, 120 420 C 140 460, 180 440, 160 400 C 140 360, 150 350, 150 350 Z"/>
  <path fill="#3A2718" d="M350 350 C 350 350, 400 380, 380 420 C 360 460, 320 440, 340 400 C 360 360, 350 350, 350 350 Z"/>
</svg>